<svg width="155" height="35" viewBox="0 0 44 13" fill="none" xmlns="http://www.w3.org/2000/svg">
<path d="M2.89844 10.3159V2.54688C2.89844 2.22559 2.86882 1.98519 2.80957 1.82568C2.75033 1.66618 2.63411 1.54883 2.46094 1.47363C2.28776 1.39844 2.02799 1.354 1.68164 1.34033V0.837891C2.49512 0.885742 3.19922 0.909668 3.79395 0.909668C4.40462 0.909668 5.11898 0.885742 5.93701 0.837891V1.34033C5.618 1.3654 5.38216 1.40983 5.22949 1.47363C5.0791 1.53743 4.97428 1.64681 4.91504 1.80176C4.85807 1.95671 4.82959 2.19596 4.82959 2.51953V8.7334C4.82959 9.55143 4.75553 10.235 4.60742 10.7842C4.45931 11.3356 4.11296 11.7401 3.56836 11.9976C3.13997 12.2118 2.63639 12.3188 2.05762 12.3188C1.50618 12.3188 1.04932 12.2118 0.687012 11.9976C0.50472 11.895 0.358887 11.756 0.249512 11.5806C0.140137 11.4051 0.0854492 11.2308 0.0854492 11.0576C0.0854492 10.8822 0.144694 10.7284 0.263184 10.5962C0.383952 10.4663 0.548014 10.3911 0.755371 10.3706C0.764486 10.3706 0.779297 10.3683 0.799805 10.3638C0.820312 10.3592 0.833984 10.3569 0.84082 10.3569C1.06185 10.3569 1.21908 10.4196 1.3125 10.5449C1.4082 10.6702 1.50277 10.8594 1.59619 11.1123C1.69189 11.3652 1.78532 11.5293 1.87646 11.6045C1.95622 11.6706 2.04964 11.7036 2.15674 11.7036C2.33219 11.7036 2.486 11.6466 2.61816 11.5327C2.80501 11.3595 2.89844 11.0291 2.89844 10.5415V10.3159ZM9.30713 5.89307H11.5459L10.4829 3.06299L9.30713 5.89307ZM9.60107 9.02734C8.96305 9.00911 8.4777 9 8.14502 9C7.83512 9 7.35433 9.00911 6.70264 9.02734V8.53857C7.26318 8.47021 7.66423 8.15234 7.90576 7.58496L10.8315 0.697754H11.4331L14.1641 7.57129C14.2096 7.61914 14.27 7.73307 14.3452 7.91309C14.4204 8.09082 14.5286 8.2321 14.6699 8.33691C14.8135 8.43945 15.055 8.50667 15.3945 8.53857V9.02734C14.3691 9.00911 13.599 9 13.084 9C12.6556 9 12.0312 9.00911 11.2109 9.02734V8.53857C11.5254 8.5249 11.7749 8.49642 11.9595 8.45312C12.144 8.40983 12.2397 8.29818 12.2466 8.11816V8.03271C12.2466 7.89372 12.2192 7.73307 12.1646 7.55078C12.1099 7.36621 12.0495 7.19076 11.9834 7.02441C11.9173 6.85579 11.8455 6.67464 11.7681 6.48096H9.0542C8.9585 6.70426 8.8776 6.89339 8.81152 7.04834C8.74772 7.20329 8.69531 7.35026 8.6543 7.48926C8.61328 7.62598 8.59277 7.7513 8.59277 7.86523C8.59277 8.28906 8.92887 8.51351 9.60107 8.53857V9.02734ZM16.0508 9H16.666C16.6956 8.54427 16.7104 8.11475 16.7104 7.71143C16.7104 7.31266 16.6956 6.87858 16.666 6.40918H17.2266C17.3861 7.0472 17.6356 7.57129 17.9751 7.98145C18.3146 8.38932 18.7646 8.59326 19.3252 8.59326C19.4665 8.59326 19.5701 8.5887 19.6362 8.57959C20.0031 8.54085 20.297 8.3973 20.5181 8.14893C20.7414 7.90055 20.853 7.61914 20.853 7.30469C20.853 6.89909 20.6799 6.55843 20.3335 6.28271C20.0851 6.09587 19.716 5.89648 19.2261 5.68457C18.7384 5.47266 18.3636 5.29492 18.1016 5.15137C17.8395 5.00781 17.5854 4.79248 17.3394 4.50537C16.9748 4.08382 16.7925 3.57113 16.7925 2.96729C16.7925 2.44548 16.9281 1.99202 17.1992 1.60693C17.6709 0.982585 18.3853 0.67041 19.3423 0.67041C20.0304 0.67041 20.6605 0.880046 21.2324 1.29932L21.3862 0.783203H21.9604C21.9604 1.53288 21.9741 2.29281 22.0015 3.06299H21.4546C21.2586 2.34294 20.9316 1.8348 20.4736 1.53857C20.1842 1.36084 19.8345 1.27197 19.4243 1.27197C19.2762 1.27197 19.1646 1.27653 19.0894 1.28564C18.8296 1.34033 18.6177 1.46566 18.4536 1.66162C18.2896 1.85758 18.2075 2.08659 18.2075 2.34863C18.2075 2.79069 18.5015 3.15072 19.0894 3.42871C19.3993 3.56543 19.6943 3.69417 19.9746 3.81494C20.2549 3.93571 20.526 4.06673 20.7881 4.20801C21.0524 4.34928 21.2951 4.50765 21.5161 4.68311C21.7394 4.85856 21.9285 5.06136 22.0835 5.2915C22.3455 5.66748 22.4766 6.11523 22.4766 6.63477C22.4766 7.05404 22.3786 7.45964 22.1826 7.85156C21.9365 8.29818 21.5754 8.632 21.0991 8.85303C20.6229 9.07178 20.1113 9.18115 19.5645 9.18115H19.5098C19.07 9.18115 18.6906 9.12191 18.3716 9.00342C18.0526 8.88493 17.7222 8.68783 17.3804 8.41211L17.2402 9H16.0508ZM33.0005 4.92578C33.0005 5.5319 32.8797 6.1027 32.6382 6.63818C32.3966 7.17139 32.0617 7.63851 31.6333 8.03955C31.2049 8.44059 30.7127 8.75277 30.1567 8.97607C29.6007 9.1971 29.0231 9.30762 28.4238 9.30762C27.8177 9.30762 27.2332 9.20394 26.6704 8.99658C26.1099 8.78695 25.6097 8.49072 25.1699 8.10791C24.7301 7.72282 24.3849 7.26823 24.1343 6.74414C23.8859 6.22005 23.7617 5.65609 23.7617 5.05225C23.7617 4.24561 23.9645 3.49707 24.3701 2.80664C24.7757 2.11393 25.326 1.56592 26.021 1.1626C26.716 0.759277 27.4748 0.557617 28.2974 0.557617C28.8966 0.557617 29.4788 0.664714 30.0439 0.878906C30.6113 1.09082 31.1172 1.39274 31.5615 1.78467C32.0059 2.1766 32.3568 2.64258 32.6143 3.18262C32.8717 3.72266 33.0005 4.30371 33.0005 4.92578ZM26.5747 2.06836C26.1463 2.64258 25.9321 3.53923 25.9321 4.7583C25.9321 4.78564 25.9344 4.82438 25.939 4.87451C25.9435 4.92464 25.9458 4.95996 25.9458 4.98047C25.9458 5.61165 26.0153 6.19727 26.1543 6.7373C26.2933 7.27734 26.5462 7.72396 26.9131 8.07715C27.2822 8.43034 27.7812 8.60693 28.4102 8.60693C29.3353 8.60693 29.9585 8.26172 30.2798 7.57129C30.6011 6.88086 30.7663 6.00358 30.7754 4.93945C30.7754 4.03939 30.6307 3.24528 30.3413 2.55713C30.0542 1.8667 29.5369 1.45199 28.7896 1.31299C28.6369 1.28564 28.4683 1.27197 28.2837 1.27197C27.9396 1.27197 27.6183 1.33919 27.3198 1.47363C27.0213 1.60579 26.7729 1.80404 26.5747 2.06836ZM34.2617 9.04102V8.53857C34.5785 8.48844 34.8154 8.40983 34.9727 8.30273C35.1322 8.19564 35.2381 8.04753 35.2905 7.8584C35.3429 7.66927 35.3691 7.40609 35.3691 7.06885V1.95898C35.1732 1.71061 35.0034 1.54883 34.8599 1.47363C34.7186 1.39616 34.4964 1.34717 34.1934 1.32666V0.851562C34.7266 0.890299 35.1094 0.909668 35.3418 0.909668C35.638 0.909668 36.1131 0.890299 36.7671 0.851562L41.6138 6.39551V2.75537C41.6069 2.26546 41.5306 1.91113 41.3848 1.69238C41.2412 1.47363 40.9393 1.35173 40.479 1.32666V0.851562C40.5861 0.853841 40.7342 0.858398 40.9233 0.865234C41.1147 0.87207 41.305 0.878906 41.4941 0.885742C41.6833 0.890299 41.8302 0.892578 41.9351 0.892578C42.0353 0.892578 42.18 0.890299 42.3691 0.885742C42.5583 0.878906 42.7463 0.87207 42.9331 0.865234C43.12 0.858398 43.2681 0.853841 43.3774 0.851562V1.32666C42.9285 1.34489 42.6289 1.47591 42.4785 1.71973C42.3304 1.96354 42.2563 2.33268 42.2563 2.82715V9.18115H41.5693L36.0391 2.72803V7.06885C36.0505 7.53141 36.1336 7.88802 36.2886 8.13867C36.4458 8.38704 36.7363 8.52035 37.1602 8.53857V9.02734C36.431 9.00911 35.8716 9 35.4819 9C35.0763 9 34.6696 9.01367 34.2617 9.04102Z" fill="white"/>
</svg>
